HIERARCHY
ROOT Hips
{
	OFFSET 0.00000 0.00000 0.00000
	CHANNELS 6 Xposition Yposition Zposition Zrotation Yrotation Xrotation 
	JOINT LHipJoint
	{
		OFFSET 0 0 0
		CHANNELS 3 Zrotation Yrotation Xrotation
		JOINT LeftHip
		{
			OFFSET 1.62964 -1.40469 0.78906
			CHANNELS 3 Zrotation Yrotation Xrotation
			JOINT LeftKnee
			{
				OFFSET 2.29640 -6.30932 0.00000
				CHANNELS 3 Zrotation Yrotation Xrotation
				JOINT LeftAnkle
				{
					OFFSET 2.29451 -6.30412 0.00000
					CHANNELS 3 Zrotation Yrotation Xrotation
					JOINT LeftToe
					{
						OFFSET 0.03611 -0.09921 1.56387
						CHANNELS 3 Zrotation Yrotation Xrotation
						End Site
						{
							OFFSET 0.00000 -0.00000 0.80291
						}
					}
				}
			}
		}
	}
	JOINT RHipJoint
	{
		OFFSET 0 0 0
		CHANNELS 3 Zrotation Yrotation Xrotation
		JOINT RightHip
		{
			OFFSET -1.73712 -1.40469 0.78906
			CHANNELS 3 Zrotation Yrotation Xrotation
			JOINT RightKnee
			{
				OFFSET -2.28137 -6.26801 0.00000
				CHANNELS 3 Zrotation Yrotation Xrotation
				JOINT RightAnkle
				{
					OFFSET -2.28681 -6.28298 0.00000
					CHANNELS 3 Zrotation Yrotation Xrotation
					JOINT RightToe
					{
						OFFSET -0.15927 -0.43759 1.61103
						CHANNELS 3 Zrotation Yrotation Xrotation
						End Site
						{
							OFFSET -0.00000 -0.00000 0.84630
						}
					}
				}
			}
		}
	}
	JOINT lowerback
	{
		OFFSET 0 0 0
		CHANNELS 3 Zrotation Yrotation Xrotation
		JOINT Chest
		{
			OFFSET -0.04227 2.04338 -0.00225
			CHANNELS 3 Zrotation Yrotation Xrotation
			JOINT Chest2
			{
				OFFSET -0.02148 2.04482 -0.04273
				CHANNELS 3 Zrotation Yrotation Xrotation
				JOINT lowerneck
				{
					OFFSET 0 0 0
					CHANNELS 3 Zrotation Yrotation Xrotation
					JOINT Neck
					{
						OFFSET 0.09180 1.44629 0.19359
						CHANNELS 3 Zrotation Yrotation Xrotation
						JOINT Head
						{
							OFFSET 0.00887 1.40645 0.14750
							CHANNELS 3 Zrotation Yrotation Xrotation
							End Site
							{
								OFFSET -0.00669 1.50671 0.03707
							}
						}
					}
				}
				JOINT LeftCollar
				{
					OFFSET 0 0 0
					CHANNELS 3 Zrotation Yrotation Xrotation
					JOINT LeftShoulder
					{
						OFFSET 2.17674 1.86763 -0.06520
CHANNELS 3 Zrotation Xrotation Yrotation
						JOINT LeftElbow
						{
OFFSET 0 -4.657760 0.000000
CHANNELS 3 Zrotation Xrotation Yrotation
							JOINT LeftWrist
							{
OFFSET 0 -3.555390 0.000000
CHANNELS 3 Zrotation Xrotation Yrotation
								JOINT lhand
								{
									OFFSET 0 0 0
CHANNELS 3 Zrotation Xrotation Yrotation
									JOINT LFingers
									{
OFFSET 0 -0.707260 0.000000
CHANNELS 3 Zrotation Xrotation Yrotation
										End Site
										{
OFFSET 0 -0.570220 0.000000
										}
									}
								}
								JOINT LThumb
								{
OFFSET 0 0.000000 0.000000
CHANNELS 3 Zrotation Xrotation Yrotation
									End Site
									{
OFFSET 0 -0.578920 0.578920
									}
								}
							}
						}
					}
				}
				JOINT RightCollar
				{
					OFFSET 0 0 0
					CHANNELS 3 Zrotation Yrotation Xrotation
					JOINT RightShoulder
					{
						OFFSET -2.80694 1.55459 -0.32496
CHANNELS 3 Zrotation Xrotation Yrotation
						JOINT RightElbow
						{
OFFSET 0 -4.719250 -0.000000
CHANNELS 3 Zrotation Xrotation Yrotation
							JOINT RightWrist
							{
OFFSET 0 -3.569900 0.000000
CHANNELS 3 Zrotation Xrotation Yrotation
								JOINT rhand
								{
									OFFSET 0 0 0
CHANNELS 3 Zrotation Xrotation Yrotation
									JOINT RFingers
									{
OFFSET 0 -0.507760 0.000000
CHANNELS 3 Zrotation Xrotation Yrotation
										End Site
										{
OFFSET 0 -0.409370 0.000000
										}
									}
								}
								JOINT RThumb
								{
OFFSET 0 0.000000 0.000000
CHANNELS 3 Zrotation Xrotation Yrotation
									End Site
									{
OFFSET 0 -0.415620 0.415620
									}
								}
							}
						}
					}
				}
			}
		}
	}
}
MOTION
Frames: 10
Frame Time: 0.008333333333333333
9.060247 14.888713 31.955869 178.998000 -3.015259 -140.947018 0.000000 0.000000 0.000000 -5.659741 -26.113223 -62.841187 8.538647 16.501029 54.479773 1.631223 -15.229938 -23.741907 0.381505 -3.945091 -10.925222 0.000000 0.000000 0.000000 8.419880 22.760059 -60.515899 -7.717367 -15.906943 51.537514 -4.582626 3.850163 -39.840069 -2.631832 10.073859 -29.216119 -4.487270 -0.986122 -13.233034 -0.151041 -0.762790 -0.748139 2.226403 -0.563639 6.694594 -0.541890 0.204806 -1.691626 5.334768 -1.337611 -24.617166 2.063527 -2.196852 -7.203677 0.000000 0.000000 0.000000 10.575076 -0.294449 -18.355016 8.715448 -14.705667 1.126939 19.461746 8.114510 10.809092 0.000000 0.000000 0.000000 -7.125000 0.000000 0.000000 -5.368507 18.561004 -3.395324 0.000000 0.000000 0.000000 -1.784837 6.062134 1.811578 -10.956187 -18.221071 -1.762246 -8.231256 16.935353 51.783133 0.000000 0.000000 0.000000 7.125000 0.000000 0.000000 64.427130 73.901678 -48.552517
9.060574 14.832339 31.932376 178.977766 -2.921963 -140.960209 0.000000 0.000000 0.000000 -5.744682 -25.962858 -63.223307 8.800932 16.676753 55.397357 1.633784 -15.777728 -23.887291 0.296576 -3.494924 -9.660555 0.000000 0.000000 0.000000 8.258998 22.954173 -60.982326 -8.006284 -16.122288 52.582723 -4.667804 3.679978 -40.261007 -2.715186 10.218520 -29.687757 -4.492552 -0.941377 -13.126475 -0.164987 -0.704143 -0.729006 2.226638 -0.533268 6.650977 -0.555613 0.240675 -1.649492 5.244246 -1.302774 -24.662225 2.036108 -2.172410 -7.227967 0.000000 0.000000 0.000000 10.419337 -0.645083 -17.930219 8.519374 -14.391048 1.077702 19.451095 8.786400 10.548084 0.000000 0.000000 0.000000 -7.125000 0.000000 0.000000 -5.372619 18.836047 -3.365091 0.000000 0.000000 0.000000 -1.824109 5.790467 2.035014 -10.945412 -18.204538 -1.758835 -8.198367 16.856922 51.698408 0.000000 0.000000 0.000000 7.125000 0.000000 0.000000 64.170336 73.858179 -48.276516
9.060900 14.777841 31.905618 178.943299 -2.843379 -141.071644 0.000000 0.000000 0.000000 -5.894190 -25.855759 -63.451402 9.063773 16.847387 56.308633 1.661242 -16.068510 -24.128144 0.299913 -3.516030 -9.719436 0.000000 0.000000 0.000000 8.183270 23.066032 -61.253313 -8.269345 -16.312688 53.525271 -4.749275 3.536876 -40.657144 -2.820870 10.398344 -30.277388 -4.483548 -0.845470 -12.958779 -0.220775 -0.576432 -0.673200 2.187334 -0.467528 6.606779 -0.577006 0.207329 -1.550299 5.229897 -1.355361 -24.796428 2.043432 -2.200892 -7.288403 0.000000 0.000000 0.000000 10.317937 -1.032315 -17.750921 8.372857 -14.155419 1.041467 19.430974 9.384266 10.261175 0.000000 0.000000 0.000000 -7.125000 0.000000 0.000000 -5.383527 19.139065 -3.335558 0.000000 0.000000 0.000000 -1.751910 5.544151 2.200346 -11.008376 -18.300990 -1.778597 -8.259270 16.772419 51.725708 0.000000 0.000000 0.000000 7.125000 0.000000 0.000000 64.224237 73.890889 -48.360411
9.061333 14.723883 31.875624 178.899576 -2.730579 -141.212644 0.000000 0.000000 0.000000 -6.086381 -25.757216 -63.614458 9.328711 17.013769 57.218851 1.695868 -16.228518 -24.382180 0.326602 -3.672047 -10.155924 0.000000 0.000000 0.000000 8.123596 23.150578 -61.441694 -8.523087 -16.489695 54.423919 -4.833464 3.531312 -41.035695 -2.906909 10.542754 -30.752824 -4.486977 -0.719435 -12.806240 -0.321676 -0.402520 -0.599309 2.115396 -0.379676 6.586929 -0.586216 0.110915 -1.446556 5.300048 -1.488466 -24.983454 2.082971 -2.281471 -7.363993 0.000000 0.000000 0.000000 10.284150 -1.396499 -17.828039 8.295335 -14.030535 1.022510 19.395345 9.798833 10.041771 0.000000 0.000000 0.000000 -7.125000 0.000000 0.000000 -5.406576 19.372266 -3.321810 0.000000 0.000000 0.000000 -1.588520 5.273634 2.354850 -11.100482 -18.442023 -1.807584 -8.532352 16.830893 51.703578 0.000000 0.000000 0.000000 7.125000 0.000000 0.000000 63.990534 73.983524 -48.256186
9.062765 14.668458 31.844993 178.849699 -2.530294 -141.227568 0.000000 0.000000 0.000000 -6.248792 -25.621977 -63.927192 9.600269 17.178786 58.143728 1.710052 -16.464987 -24.527904 0.298316 -3.510582 -9.703775 0.000000 0.000000 0.000000 7.941105 23.325752 -61.819767 -8.806574 -16.681562 55.418685 -4.928203 3.735230 -41.417459 -2.932917 10.585664 -30.894918 -4.553931 -0.605571 -12.822870 -0.452194 -0.230403 -0.552031 2.046271 -0.297348 6.634177 -0.561475 0.010162 -1.403108 5.421477 -1.631014 -25.186015 2.134702 -2.379885 -7.433704 0.000000 0.000000 0.000000 10.317141 -1.655563 -18.179337 8.311209 -14.056027 1.026387 19.354163 9.884322 9.920043 0.000000 0.000000 0.000000 -7.125000 0.000000 0.000000 -5.434760 19.503099 -3.323448 0.000000 0.000000 0.000000 -1.406026 4.939531 2.683294 -11.174629 -18.555335 -1.831088 -9.120577 17.090609 51.396974 0.000000 0.000000 0.000000 7.125000 0.000000 0.000000 62.638427 74.086102 -47.173589
9.064958 14.623516 31.811247 178.705633 -2.459748 -141.447583 0.000000 0.000000 0.000000 -6.536612 -25.641317 -63.886712 9.847140 17.322383 58.975479 1.701753 -16.879962 -24.584982 0.218453 -2.997422 -8.272503 0.000000 0.000000 0.000000 7.914484 23.237041 -61.677971 -8.989946 -16.800887 56.054693 -5.025448 3.970748 -41.801350 -2.966976 10.641412 -31.079778 -4.682260 -0.661554 -12.624231 -0.518981 -0.284115 -0.449227 2.038598 -0.325770 6.636761 -0.503692 -0.011213 -1.487121 5.440817 -1.678384 -25.223363 2.134781 -2.419582 -7.430494 0.000000 0.000000 0.000000 10.295061 -1.781621 -18.585934 8.405323 -14.207689 1.049407 19.419933 9.653893 9.740586 0.000000 0.000000 0.000000 -7.125000 0.000000 0.000000 -5.386529 19.687333 -3.271459 0.000000 0.000000 0.000000 -1.376743 4.572083 3.678060 -11.225835 -18.633554 -1.847453 -10.010894 17.620211 50.876846 0.000000 0.000000 0.000000 7.125000 0.000000 0.000000 60.378066 74.206758 -45.330708
9.067268 14.578514 31.772315 178.621087 -2.364805 -141.724761 0.000000 0.000000 0.000000 -6.799445 -25.615927 -63.744517 10.084229 17.456080 59.768335 1.698639 -17.240779 -24.662392 0.149964 -2.473007 -6.815950 0.000000 0.000000 0.000000 7.936305 23.263895 -61.490090 -9.206260 -16.937773 56.799430 -5.141610 3.981796 -42.305756 -3.066449 10.800879 -31.612216 -4.764681 -0.713764 -12.386048 -0.572038 -0.351558 -0.446607 2.017960 -0.357610 6.510874 -0.433415 -0.006894 -1.384851 5.410300 -1.642424 -25.081382 2.106336 -2.389562 -7.402886 0.000000 0.000000 0.000000 10.239744 -1.782391 -18.708717 8.396659 -14.193812 1.047262 19.644052 9.717297 9.777054 0.000000 0.000000 0.000000 -7.125000 0.000000 0.000000 -5.227153 19.633424 -3.179867 0.000000 0.000000 0.000000 -1.346517 4.474423 4.958467 -11.298551 -18.744362 -1.870771 -11.244310 18.662518 50.760222 0.000000 0.000000 0.000000 7.125000 0.000000 0.000000 59.196093 74.625077 -44.742658
9.068835 14.534089 31.731269 178.570619 -2.241331 -141.975678 0.000000 0.000000 0.000000 -7.023056 -25.573382 -63.600205 10.310731 17.580194 60.520972 1.703335 -17.556734 -24.776937 0.102560 -2.057100 -5.663697 0.000000 0.000000 0.000000 7.949585 23.374405 -61.343207 -9.430162 -17.075926 57.565153 -5.239529 3.909326 -42.743701 -3.141627 10.920791 -32.013237 -4.810796 -0.773820 -12.176827 -0.609488 -0.439670 -0.503414 1.990232 -0.398280 6.339159 -0.457242 0.051771 -1.263212 5.405692 -1.516314 -24.869489 2.095137 -2.302383 -7.356874 0.000000 0.000000 0.000000 10.148152 -1.715409 -18.671372 8.360514 -14.135588 1.038412 19.939043 9.946131 9.914633 0.000000 0.000000 0.000000 -7.125000 0.000000 0.000000 -5.018559 19.467678 -3.070423 0.000000 0.000000 0.000000 -1.372271 4.447549 6.153035 -11.376810 -18.863459 -1.895964 -12.049168 19.207581 50.186752 0.000000 0.000000 0.000000 7.125000 0.000000 0.000000 56.793383 74.657611 -42.736944
9.068686 14.492433 31.687970 178.523127 -2.105057 -142.222237 0.000000 0.000000 0.000000 -7.253570 -25.550732 -63.394700 10.515610 17.689579 61.198006 1.717499 -17.856805 -24.945445 0.076795 -1.785079 -4.912066 0.000000 0.000000 0.000000 7.940851 23.512141 -61.171682 -9.634405 -17.198878 58.259140 -5.302998 3.929918 -43.013359 -3.112835 10.873239 -31.855920 -4.829248 -0.843290 -11.993288 -0.643239 -0.543914 -0.565087 1.948484 -0.446488 6.177604 -0.595556 0.160065 -1.163621 5.464443 -1.327096 -24.710472 2.122913 -2.186860 -7.325053 0.000000 0.000000 0.000000 10.049397 -1.610378 -18.679740 8.369176 -14.149424 1.040603 20.201779 10.151903 10.078786 0.000000 0.000000 0.000000 -7.125000 0.000000 0.000000 -4.833719 19.275647 -2.977608 0.000000 0.000000 0.000000 -1.455524 4.436625 7.462648 -11.543947 -19.116173 -1.951059 -12.890656 18.990343 49.330606 0.000000 0.000000 0.000000 7.125000 0.000000 0.000000 53.383646 74.579435 -39.748077
9.065084 14.459313 31.637390 178.422907 -2.008516 -142.652088 0.000000 0.000000 0.000000 -7.650301 -25.619477 -62.802147 10.665940 17.767642 61.691748 1.742711 -18.213370 -25.196309 0.061135 -1.594347 -4.385909 0.000000 0.000000 0.000000 7.952204 23.556222 -60.650145 -9.773617 -17.280464 58.728844 -5.336275 4.370261 -43.075683 -2.867922 10.477055 -30.536769 -4.830501 -0.910313 -11.726451 -0.711514 -0.641316 -0.528209 1.862670 -0.490804 6.073234 -0.758727 0.264278 -0.966547 5.590737 -1.162672 -24.814216 2.189543 -2.109503 -7.396930 0.000000 0.000000 0.000000 10.034755 -1.470069 -19.171133 8.530938 -14.409762 1.080456 20.250089 9.957256 10.215884 0.000000 0.000000 0.000000 -7.125000 0.000000 0.000000 -4.801539 19.127118 -2.973615 0.000000 0.000000 0.000000 -1.520198 4.569887 10.038859 -12.077229 -19.919893 -2.128872 -16.294469 18.660242 49.960506 0.000000 0.000000 0.000000 7.125000 0.000000 0.000000 52.927487 76.210522 -40.946180
